<svg width="24" height="24" viewBox="0 0 24 24" fill="none" xmlns="http://www.w3.org/2000/svg">
<path d="M22.8 16.8C21 15 16.7 13.6 14.1 12C16.7 10.4 21 9 22.8 7.2C23.6 6.4 24 5.3 24 4.2C24 3.1 23.6 2 22.8 1.2C22.4 0.8 21.9 0.5 21.4 0.3C20.9 0.1 20.4 0 19.8 0C18.7 0 17.6 0.4 16.8 1.2C15 3 13.6 7.3 12 9.9C10.4 7.3 9 3 7.2 1.2C6.4 0.4 5.3 0 4.2 0C3.1 0 2 0.4 1.2 1.2C0.8 1.6 0.5 2.1 0.3 2.6C0.1 3.1 0 3.6 0 4.2C0 5.3 0.4 6.4 1.2 7.2C3 9 7.3 10.4 9.9 12C7.3 13.6 3 15 1.2 16.8C0.4 17.6 0 18.7 0 19.8C0 20.9 0.4 22 1.2 22.8C1.6 23.2 2.1 23.5 2.6 23.7C3.1 23.9 3.6 24 4.2 24C5.3 24 6.4 23.6 7.2 22.8C9 21 10.4 16.7 12 14.1C13.6 16.7 15 21 16.8 22.8C17.6 23.6 18.7 24 19.8 24C20.9 24 22 23.6 22.8 22.8C23.2 22.4 23.5 21.9 23.7 21.4C23.9 20.9 24 20.3 24 19.8C24 18.7 23.6 17.6 22.8 16.8Z" fill="#D5A38E"/>
</svg>
