<svg width="584" height="594" viewBox="0 0 584 594" fill="none" xmlns="http://www.w3.org/2000/svg">
<path d="M225.967 107.22C227.684 111.376 228.585 115.824 228.621 120.32C228.869 125.481 229.083 129.938 235.502 136.355C241.921 142.774 246.377 142.988 251.537 143.236C260.617 143.301 269.313 146.903 275.779 153.277C279.458 156.618 282.668 159.513 290.982 159.73V316.991H292.982V159.73C301.297 159.513 304.507 156.618 308.186 153.277C314.652 146.903 323.348 143.301 332.428 143.236C337.588 142.988 342.044 142.774 348.463 136.355C354.882 129.937 355.096 125.481 355.344 120.32C355.409 111.241 359.01 102.545 365.384 96.0791C368.857 92.2559 371.857 88.9531 371.857 79.876C371.857 70.7979 368.857 67.4951 365.384 63.6709C358.991 57.201 355.396 48.4789 355.373 39.3838C355.134 34.124 354.928 29.5811 348.336 23.2705C342.244 17.4385 337.818 17.1191 332.693 16.7481C328.102 16.5883 323.575 15.6104 319.327 13.8604C315.174 12.1354 311.391 9.62758 308.186 6.47363C304.361 3 301.06 0 291.982 0C282.905 0 279.604 3 275.779 6.47363C269.313 12.8478 260.617 16.4498 251.537 16.5146C246.377 16.7626 241.921 16.9765 235.502 23.3955C229.083 29.8144 228.869 34.2705 228.621 39.4306C228.557 48.5094 224.955 57.2053 218.581 63.6709C215.107 67.4951 212.107 70.7979 212.107 79.876C212.107 88.9531 215.107 92.2558 218.581 96.0791C221.734 99.2849 224.242 103.067 225.967 107.22ZM220.062 65.0156C226.747 58.2061 230.532 49.0691 230.619 39.5264C230.856 34.5849 231.044 30.6816 236.916 24.8096C242.788 18.9375 246.691 18.75 251.633 18.5127C261.176 18.4253 270.314 14.6404 277.124 7.95409C280.786 4.62792 283.679 1.99999 291.982 1.99999C300.286 1.99999 303.179 4.62792 306.841 7.95409C310.213 11.268 314.193 13.9007 318.562 15.708C323.006 17.5452 327.743 18.5731 332.549 18.7431C337.483 19.0996 341.381 19.3818 346.953 24.7158C352.966 30.4717 353.138 34.248 353.375 39.4746C353.42 49.0354 357.198 58.2005 363.903 65.0156C367.23 68.6787 369.857 71.5713 369.857 79.876C369.857 88.1807 367.23 91.0732 363.903 94.7344C357.218 101.544 353.433 110.682 353.346 120.225C353.108 125.166 352.921 129.069 347.049 134.941C341.177 140.813 337.273 141.001 332.331 141.238C322.788 141.326 313.651 145.111 306.841 151.797C303.332 154.984 300.516 157.523 292.982 157.731V122.392C292.982 101.439 313.547 80.876 334.499 80.876V78.876C313.547 78.876 292.982 58.3115 292.982 37.3594H290.982C290.982 58.3115 270.418 78.876 249.466 78.876V80.876C270.418 80.876 290.982 101.439 290.982 122.392V157.731C283.449 157.523 280.633 154.984 277.124 151.797C270.314 145.111 261.176 141.326 251.633 141.238C246.691 141.001 242.788 140.813 236.916 134.941C231.044 129.069 230.856 125.166 230.619 120.225C230.532 110.682 226.747 101.544 220.062 94.7344C216.734 91.0732 214.107 88.1806 214.107 79.876C214.107 71.5713 216.734 68.6787 220.062 65.0156ZM291.982 114.099C288.156 98.0395 273.819 83.7028 257.759 79.876C273.819 76.0492 288.156 61.7124 291.982 45.6522C295.809 61.7124 310.146 76.0492 326.206 79.876C310.146 83.7028 295.809 98.0395 291.982 114.099Z" fill="#D5A38E"/>
<path d="M238.396 466.137H236.396C236.396 489.36 213.603 512.153 190.379 512.153V514.153C213.526 514.153 236.239 536.797 236.389 559.941C235.266 562.13 226.98 578.459 226.98 583.586C226.98 586.348 228.078 588.997 230.031 590.95C231.984 592.904 234.633 594.001 237.396 594.001C240.158 594.001 242.807 592.904 244.76 590.95C246.713 588.997 247.811 586.348 247.811 583.586C247.811 578.459 239.525 562.13 238.402 559.941C238.552 536.797 261.265 514.153 284.411 514.153V512.153C261.188 512.153 238.396 489.36 238.396 466.137ZM237.396 592C235.165 591.998 233.026 591.11 231.448 589.533C229.871 587.956 228.983 585.817 228.98 583.586C228.98 579.927 234.421 568.313 237.396 562.377C240.37 568.312 245.81 579.926 245.81 583.586C245.808 585.817 244.92 587.956 243.343 589.533C241.765 591.11 239.626 591.998 237.396 592ZM237.396 551.485C233.306 533.422 217.127 517.243 199.063 513.153C217.127 509.064 233.306 492.885 237.396 474.822C241.485 492.885 257.663 509.064 275.727 513.153C257.663 517.243 241.485 533.422 237.396 551.485Z" fill="#D5A38E"/>
<path d="M347.567 466.137H345.567C345.567 489.36 322.774 512.153 299.551 512.153V514.153C322.698 514.153 345.411 536.797 345.561 559.941C344.438 562.13 336.152 578.459 336.152 583.586C336.152 586.348 337.25 588.997 339.203 590.95C341.156 592.904 343.805 594.001 346.567 594.001C349.33 594.001 351.979 592.904 353.932 590.95C355.885 588.997 356.982 586.348 356.982 583.586C356.982 578.459 348.697 562.13 347.574 559.941C347.724 536.797 370.437 514.153 393.584 514.153V512.153C370.36 512.153 347.567 489.36 347.567 466.137ZM346.567 592C344.337 591.998 342.198 591.11 340.62 589.533C339.043 587.956 338.155 585.817 338.152 583.586C338.152 579.927 343.593 568.313 346.567 562.377C349.542 568.312 354.982 579.926 354.982 583.586C354.98 585.817 354.092 587.956 352.515 589.533C350.937 591.11 348.798 591.998 346.567 592ZM346.567 551.485C342.478 533.422 326.299 517.243 308.235 513.153C326.299 509.064 342.478 492.885 346.567 474.821C350.657 492.885 366.836 509.064 384.899 513.153C366.836 517.243 350.657 533.422 346.567 551.485Z" fill="#D5A38E"/>
<path d="M165.295 444.218L37.81 447.625L37.501 447.588L37.188 447.504L37.024 447.436L36.252 449.281L36.414 449.349L36.699 449.516L36.943 449.71L124.038 542.861L125.499 541.496L47.65 458.233L136.964 529.335L138.21 527.771L48.836 456.622L149.902 515.791L150.911 514.064L50.274 455.146L162.839 502.225L163.611 500.379L51.049 453.302L163.664 483.573L164.184 481.642L51.086 451.24L164.503 464.905L164.741 462.919L51.405 449.264L165.348 446.218L165.295 444.218Z" fill="#D5A38E"/>
<path d="M547.551 449.349L547.712 449.281L546.941 447.436L546.777 447.504L546.464 447.588L546.155 447.625L418.669 444.218L418.617 446.218L532.559 449.264L419.223 462.919L419.461 464.905L532.878 451.24L419.781 481.642L420.3 483.573L532.915 453.302L420.354 500.379L421.125 502.225L533.69 455.146L433.053 514.064L434.063 515.791L535.128 456.622L445.754 527.771L447 529.335L536.315 458.233L458.465 541.496L459.926 542.861L547.021 449.71L547.266 449.516L547.551 449.349Z" fill="#D5A38E"/>
<path d="M106.81 261.814C111.446 261.822 116.038 260.914 120.322 259.142C124.606 257.37 128.497 254.77 131.773 251.489C131.834 251.429 131.89 251.365 131.95 251.304C131.976 251.278 132.005 251.257 132.031 251.231C132.142 251.12 132.242 251.001 132.348 250.886C138.707 244.224 142.21 235.34 142.108 226.131C142.007 216.922 138.31 208.117 131.807 201.596C125.303 195.076 116.508 191.355 107.3 191.23C98.0908 191.104 89.1977 194.583 82.5188 200.925C82.3802 201.051 82.2376 201.171 82.1043 201.305C82.0701 201.339 82.0403 201.377 82.0062 201.412C81.9539 201.464 81.8987 201.511 81.8465 201.564C76.9069 206.499 73.5426 212.788 72.1792 219.636C70.8158 226.484 71.5148 233.583 74.1875 240.034C76.8603 246.484 81.3867 251.997 87.1939 255.874C93.001 259.751 99.8279 261.818 106.81 261.814ZM131.046 249.348L83.993 202.296C86.5091 200.208 89.7104 199.128 92.9774 199.264C101.051 199.264 111.482 204.228 120.295 213.041C133.012 225.758 137.707 241.838 131.046 249.348ZM82.6229 203.754L129.583 250.713C121.855 256.673 106.248 251.902 93.8407 239.495C81.4339 227.089 76.6629 211.482 82.6229 203.754ZM106.809 193.239C112.62 193.238 118.33 194.758 123.372 197.647C128.414 200.536 132.612 204.695 135.549 209.709C138.485 214.723 140.059 220.418 140.113 226.229C140.166 232.04 138.699 237.763 135.855 242.831C136.928 233.846 131.755 221.673 121.709 211.627C111.678 201.594 99.5223 196.421 90.5408 197.475C95.5126 194.696 101.114 193.238 106.809 193.239ZM78.3416 209.229C77.0237 218.257 82.2024 230.686 92.4266 240.909C101.603 250.086 112.557 255.203 121.233 255.202C122.188 255.202 123.141 255.132 124.085 254.994C117.71 258.861 110.221 260.476 102.818 259.581C95.4155 258.687 88.5271 255.334 83.2558 250.061C77.9845 244.787 74.6352 237.897 73.7442 230.494C72.8533 223.091 74.4721 215.603 78.3416 209.229Z" fill="#D5A38E"/>
<path d="M164.96 171.02C184.415 181.095 199.908 193.57 211.01 208.101C224.86 226.229 231.884 247.648 231.884 271.763H233.884C233.884 232.221 226.753 197.081 212.69 167.32C201.746 143.9 185.815 123.154 166.014 106.534C132.449 78.4336 98.3936 71.4531 98.0537 71.3857L96.8594 71.1504V149.398L97.7383 149.506C98.0743 149.548 131.748 153.82 164.96 171.02ZM98.8594 73.6172C105.135 75.1143 135.083 83.2471 164.73 108.067C184.309 124.502 200.061 145.016 210.882 168.175C221.509 190.664 228.142 216.27 230.691 244.564C227.338 230.876 221.17 218.036 212.581 206.862C201.291 192.094 185.563 179.429 165.831 169.219C135.312 153.425 104.414 148.44 98.8594 147.642V73.6172Z" fill="#D5A38E"/>
<path d="M140.462 259.99L139.232 261.562C139.612 261.904 177.053 296.508 164.12 348.929C161.382 360.021 153.77 369.276 141.46 376.503C113.914 377.182 78.6714 363.65 53.4312 353.953C44.7251 350.608 37.2066 347.72 31.1128 345.786C23.9956 343.527 17.3169 343.499 11.7993 345.704C9.38544 346.626 7.19221 348.044 5.36182 349.868C3.53143 351.692 2.10475 353.88 1.17432 356.29C0.218903 358.925 -0.160484 361.734 0.0617146 364.527C0.283913 367.321 1.10254 370.035 2.46241 372.485C5.54835 378.377 11.2837 383.312 19.0503 386.754C29.6294 391.443 48.355 394.538 69.0991 394.538C92.0337 394.538 117.435 390.754 137.007 381.159C138.702 380.328 140.326 379.466 141.879 378.572C149.805 378.305 157.142 376.856 163.527 373.815C173.155 369.23 179.892 361.212 183.55 349.985C190.212 329.541 184.851 307.479 168.046 286.183C160.092 276.232 150.811 267.419 140.462 259.99ZM136.127 379.363C99.357 397.391 41.7964 394.65 19.8608 384.926C3.74268 377.78 -0.154778 365.44 3.04444 356.999C5.34034 350.942 11.4302 346.044 20.6509 346.044C24.0015 346.084 27.3259 346.64 30.5073 347.692C36.5454 349.608 44.0376 352.487 52.7134 355.82C78.2974 365.649 110.846 378.156 137.633 378.606C137.138 378.861 136.636 379.114 136.127 379.363ZM181.648 349.366C178.167 360.051 171.78 367.669 162.667 372.01C157.284 374.453 151.504 375.9 145.606 376.282C156.566 369.074 163.432 360.064 166.061 349.407C175.528 311.04 158.588 282.016 148.048 268.483C163.596 281.814 193.446 313.162 181.648 349.366Z" fill="#D5A38E"/>
<path d="M15.5186 276.227C18.3147 276.227 21.0481 275.397 23.373 273.844C25.698 272.29 27.5101 270.082 28.5801 267.499C29.6502 264.916 29.9301 262.073 29.3846 259.331C28.8391 256.588 27.4926 254.069 25.5154 252.092C23.5382 250.115 21.0191 248.768 18.2767 248.223C15.5343 247.677 12.6916 247.957 10.1083 249.027C7.52498 250.097 5.31696 251.909 3.76349 254.234C2.21002 256.559 1.38086 259.293 1.38086 262.089C1.38498 265.837 2.87581 269.431 5.52625 272.081C8.17668 274.732 11.7703 276.222 15.5186 276.227ZM15.5186 249.951C17.9192 249.951 20.2659 250.663 22.2619 251.997C24.2579 253.33 25.8137 255.226 26.7323 257.444C27.651 259.662 27.8914 262.102 27.4231 264.457C26.9547 266.811 25.7987 268.974 24.1012 270.672C22.4037 272.369 20.241 273.525 17.8865 273.993C15.5321 274.462 13.0916 274.221 10.8737 273.303C8.65581 272.384 6.76016 270.828 5.42645 268.832C4.09274 266.836 3.38086 264.49 3.38086 262.089C3.38462 258.871 4.66462 255.786 6.94006 253.51C9.21551 251.235 12.3006 249.955 15.5186 249.951Z" fill="#D5A38E"/>
<path d="M19.1689 230.976C20.9547 230.976 22.7004 230.446 24.1853 229.454C25.6701 228.462 26.8275 227.052 27.5109 225.402C28.1943 223.752 28.3732 221.937 28.0248 220.185C27.6764 218.434 26.8165 216.825 25.5538 215.562C24.291 214.3 22.6822 213.44 20.9308 213.091C19.1793 212.743 17.3639 212.922 15.7141 213.605C14.0642 214.289 12.6541 215.446 11.6621 216.931C10.67 218.416 10.1405 220.161 10.1406 221.947C10.1432 224.341 11.0953 226.636 12.7878 228.328C14.4804 230.021 16.7753 230.973 19.1689 230.976ZM19.1689 214.918C20.5591 214.918 21.9181 215.33 23.074 216.102C24.23 216.875 25.1309 217.972 25.663 219.257C26.1951 220.541 26.3344 221.954 26.0633 223.318C25.7922 224.681 25.1229 225.933 24.1399 226.917C23.157 227.9 21.9046 228.569 20.5412 228.84C19.1777 229.112 17.7645 228.973 16.4801 228.441C15.1957 227.909 14.0979 227.008 13.3255 225.852C12.5531 224.696 12.1407 223.337 12.1406 221.947C12.1427 220.084 12.8838 218.297 14.2014 216.979C15.519 215.662 17.3055 214.92 19.1689 214.918Z" fill="#D5A38E"/>
<path d="M29.3867 197.402C30.8837 197.402 32.3471 196.959 33.5918 196.127C34.8366 195.295 35.8068 194.113 36.3797 192.73C36.9527 191.347 37.1027 189.826 36.8107 188.357C36.5188 186.889 35.798 185.54 34.7395 184.482C33.6811 183.423 32.3325 182.702 30.8643 182.41C29.3961 182.118 27.8742 182.268 26.4912 182.841C25.1081 183.413 23.926 184.383 23.0942 185.628C22.2625 186.873 21.8185 188.336 21.8184 189.833C21.8206 191.84 22.6187 193.764 24.0375 195.183C25.4563 196.602 27.3801 197.4 29.3867 197.402ZM29.3867 184.265C30.4882 184.265 31.5649 184.591 32.4808 185.203C33.3967 185.815 34.1105 186.685 34.5321 187.702C34.9536 188.72 35.064 189.84 34.8491 190.92C34.6342 192 34.1038 192.992 33.325 193.771C32.5461 194.55 31.5538 195.081 30.4735 195.295C29.3932 195.51 28.2735 195.4 27.2559 194.978C26.2383 194.557 25.3686 193.843 24.7567 192.927C24.1448 192.011 23.8183 190.934 23.8184 189.833C23.8201 188.357 24.4073 186.941 25.4512 185.898C26.4951 184.854 27.9104 184.266 29.3867 184.265Z" fill="#D5A38E"/>
<path d="M328.119 393.515C328.119 386.398 326.009 379.441 322.055 373.523C318.101 367.606 312.481 362.994 305.906 360.27C299.331 357.547 292.096 356.834 285.116 358.223C278.136 359.611 271.724 363.038 266.692 368.071C261.659 373.103 258.232 379.515 256.844 386.495C255.455 393.475 256.168 400.71 258.891 407.285C261.615 413.86 266.227 419.48 272.144 423.434C278.062 427.388 285.019 429.498 292.136 429.498C301.676 429.487 310.822 425.693 317.568 418.947C324.314 412.201 328.109 403.055 328.119 393.515ZM292.136 427.498C285.414 427.498 278.844 425.505 273.256 421.771C267.667 418.037 263.311 412.729 260.739 406.52C258.167 400.31 257.494 393.477 258.805 386.885C260.117 380.293 263.353 374.237 268.106 369.485C272.859 364.732 278.914 361.495 285.506 360.184C292.098 358.873 298.931 359.546 305.141 362.118C311.35 364.69 316.658 369.046 320.392 374.634C324.126 380.223 326.119 386.793 326.119 393.515C326.109 402.524 322.525 411.162 316.154 417.533C309.783 423.904 301.146 427.488 292.136 427.498Z" fill="#D5A38E"/>
<path d="M501.478 200.956C494.805 194.602 485.911 191.11 476.697 191.225C467.484 191.341 458.681 195.056 452.17 201.576C445.659 208.096 441.955 216.904 441.852 226.118C441.748 235.332 445.252 244.221 451.615 250.885C451.722 251 451.821 251.12 451.933 251.231C451.958 251.257 451.988 251.278 452.014 251.304C452.074 251.365 452.13 251.429 452.19 251.489C455.468 254.772 459.36 257.376 463.644 259.153C467.928 260.931 472.521 261.847 477.159 261.848C481.797 261.85 486.39 260.938 490.676 259.164C494.962 257.39 498.856 254.788 502.135 251.509C505.415 248.229 508.017 244.335 509.791 240.049C511.565 235.764 512.478 231.171 512.476 226.532C512.474 221.894 511.558 217.301 509.781 213.017C508.004 208.733 505.399 204.841 502.117 201.563C502.063 201.509 502.006 201.46 501.952 201.407C501.92 201.374 501.891 201.337 501.858 201.305C501.736 201.182 501.604 201.072 501.478 200.956ZM463.668 213.041C472.482 204.228 482.912 199.264 490.986 199.264C494.253 199.128 497.454 200.208 499.97 202.296L452.918 249.348C446.256 241.838 450.952 225.758 463.668 213.041ZM501.34 203.754C504.037 207.257 504.614 212.497 502.936 218.709C501.03 225.756 496.48 233.138 490.123 239.495C477.716 251.9 462.109 256.673 454.381 250.713L501.34 203.754ZM443.85 226.526C443.855 220.72 445.377 215.015 448.267 209.978C451.156 204.941 455.312 200.747 460.322 197.811C465.332 194.875 471.022 193.3 476.828 193.241C482.635 193.182 488.356 194.642 493.424 197.476C484.442 196.42 472.286 201.594 462.254 211.627C452.208 221.672 447.036 233.845 448.108 242.831C445.306 237.854 443.839 232.237 443.85 226.526ZM510.458 226.526C510.458 232.434 508.887 238.235 505.905 243.335C502.923 248.434 498.639 252.649 493.491 255.547C488.342 258.444 482.516 259.92 476.61 259.823C470.703 259.726 464.928 258.059 459.878 254.994C460.823 255.132 461.776 255.201 462.73 255.202C471.406 255.202 482.361 250.085 491.537 240.909C498.138 234.309 502.871 226.61 504.866 219.23C505.807 216.015 506.083 212.642 505.678 209.316C508.819 214.506 510.472 220.46 510.458 226.526Z" fill="#D5A38E"/>
<path d="M350.08 271.763H352.08C352.08 247.648 359.103 226.23 372.954 208.101C384.056 193.57 399.549 181.095 419.004 171.02C452.216 153.82 485.89 149.548 486.226 149.506L487.104 149.398V71.1504L485.91 71.3857C485.57 71.4531 451.515 78.4336 417.95 106.534C398.149 123.154 382.218 143.9 371.273 167.32C357.211 197.081 350.08 232.221 350.08 271.763ZM419.159 108.13C448.81 83.2783 478.821 75.1191 485.104 73.6182V147.642C479.55 148.44 448.652 153.425 418.133 169.219C398.401 179.429 382.673 192.094 371.383 206.862C362.794 218.036 356.626 230.876 353.272 244.564C355.82 216.296 362.443 190.708 373.054 168.234C383.863 145.082 399.598 124.569 419.159 108.13Z" fill="#D5A38E"/>
<path d="M582.79 356.291C581.86 353.88 580.433 351.692 578.603 349.868C576.772 348.045 574.579 346.626 572.165 345.704C566.647 343.499 559.968 343.529 552.851 345.786C546.757 347.72 539.238 350.608 530.532 353.953C505.923 363.408 471.774 376.531 444.586 376.529C443.889 376.529 443.194 376.521 442.505 376.503C430.195 369.276 422.582 360.021 419.845 348.929C406.911 296.508 444.353 261.904 444.733 261.562L443.502 259.99C433.154 267.419 423.872 276.232 415.918 286.183C399.113 307.479 393.752 329.541 400.413 349.985C404.071 361.212 410.809 369.229 420.437 373.815C426.825 376.857 434.154 378.307 442.085 378.572C443.64 379.466 445.264 380.328 446.957 381.159C466.532 390.755 491.928 394.539 514.865 394.538C535.606 394.537 554.337 391.442 564.914 386.754C582.221 379.082 586.313 365.585 582.79 356.291ZM421.297 372.01C412.184 367.669 405.797 360.051 402.316 349.366C390.526 313.184 420.36 281.834 435.908 268.494C425.367 282.03 408.44 311.05 417.904 349.407C420.532 360.064 427.399 369.074 438.359 376.282C432.46 375.9 426.68 374.452 421.297 372.01ZM564.104 384.926C542.168 394.649 484.608 397.39 447.838 379.363C447.329 379.113 446.827 378.861 446.331 378.605C473.117 378.154 505.669 365.648 531.25 355.82C539.926 352.487 547.418 349.608 553.456 347.692C568.211 343.011 577.885 348.991 580.92 356.999C585.484 369.041 575.403 379.917 564.104 384.926Z" fill="#D5A38E"/>
<path d="M554.307 262.089C554.307 264.885 555.136 267.618 556.689 269.943C558.243 272.268 560.451 274.08 563.034 275.15C565.617 276.22 568.46 276.5 571.202 275.955C573.945 275.409 576.464 274.063 578.441 272.086C580.418 270.109 581.765 267.589 582.31 264.847C582.856 262.105 582.576 259.262 581.506 256.679C580.436 254.095 578.624 251.887 576.299 250.334C573.974 248.78 571.241 247.951 568.444 247.951C564.696 247.955 561.102 249.446 558.452 252.097C555.802 254.747 554.311 258.341 554.307 262.089ZM580.582 262.089C580.582 264.49 579.87 266.836 578.536 268.832C577.203 270.828 575.307 272.384 573.089 273.303C570.871 274.221 568.431 274.462 566.076 273.993C563.722 273.525 561.559 272.369 559.862 270.672C558.164 268.974 557.008 266.811 556.54 264.457C556.072 262.102 556.312 259.662 557.231 257.444C558.149 255.226 559.705 253.33 561.701 251.997C563.697 250.663 566.044 249.951 568.444 249.951C571.662 249.955 574.747 251.235 577.023 253.51C579.298 255.786 580.578 258.871 580.582 262.089Z" fill="#D5A38E"/>
<path d="M555.768 221.947C555.768 223.733 556.297 225.478 557.29 226.963C558.282 228.447 559.692 229.604 561.342 230.288C562.991 230.971 564.807 231.149 566.558 230.801C568.309 230.453 569.918 229.593 571.18 228.33C572.443 227.067 573.303 225.459 573.651 223.707C573.999 221.956 573.82 220.141 573.137 218.491C572.453 216.841 571.296 215.431 569.812 214.439C568.327 213.447 566.581 212.918 564.796 212.918C562.402 212.921 560.107 213.873 558.414 215.566C556.722 217.258 555.77 219.553 555.768 221.947ZM564.796 214.918C566.186 214.918 567.545 215.33 568.701 216.102C569.857 216.875 570.758 217.972 571.29 219.257C571.822 220.541 571.961 221.954 571.69 223.318C571.419 224.681 570.75 225.933 569.767 226.917C568.784 227.9 567.532 228.569 566.168 228.84C564.805 229.112 563.391 228.973 562.107 228.441C560.823 227.909 559.725 227.008 558.952 225.852C558.18 224.696 557.768 223.337 557.768 221.947C557.77 220.084 558.511 218.297 559.828 216.979C561.146 215.662 562.932 214.92 564.796 214.918Z" fill="#D5A38E"/>
<path d="M554.577 197.402C556.074 197.402 557.537 196.958 558.782 196.127C560.027 195.295 560.997 194.113 561.569 192.73C562.142 191.347 562.292 189.825 562 188.357C561.708 186.889 560.987 185.54 559.929 184.481C558.87 183.423 557.522 182.702 556.053 182.41C554.585 182.118 553.063 182.268 551.68 182.841C550.297 183.413 549.115 184.384 548.284 185.628C547.452 186.873 547.008 188.336 547.008 189.833C547.01 191.84 547.808 193.764 549.227 195.183C550.646 196.602 552.57 197.4 554.577 197.402ZM554.577 184.265C555.679 184.265 556.755 184.591 557.671 185.203C558.587 185.815 559.3 186.685 559.722 187.703C560.143 188.72 560.253 189.84 560.038 190.92C559.823 192.001 559.293 192.993 558.514 193.772C557.735 194.55 556.743 195.081 555.663 195.295C554.582 195.51 553.463 195.4 552.445 194.978C551.428 194.557 550.558 193.843 549.946 192.927C549.334 192.011 549.008 190.934 549.008 189.833C549.01 188.357 549.597 186.941 550.641 185.897C551.685 184.853 553.101 184.266 554.577 184.265Z" fill="#D5A38E"/>
</svg>
