<svg width="27" height="24" viewBox="0 0 27 24" fill="none" xmlns="http://www.w3.org/2000/svg">
<path d="M25.795 11.0412C25.0199 10.2839 23.9737 9.8591 22.8835 9.8591C21.7933 9.8591 20.7471 10.2839 19.9722 11.0412C18.2686 12.6727 14.8035 20.1766 14.8035 20.1766L14.8914 16.8403C14.8914 15.3116 17.6193 6.96866 17.6193 4.07514C17.6205 3.54054 17.5148 3.01078 17.3083 2.51642C17.102 2.02189 16.7989 1.57265 16.4164 1.19413C16.034 0.815612 15.5797 0.515279 15.0795 0.310383C14.5795 0.105474 14.0433 0 13.5019 0C12.9604 0 12.4244 0.10546 11.9242 0.310383C11.424 0.515279 10.9699 0.815612 10.5873 1.19413C10.2048 1.57265 9.90169 2.02189 9.69537 2.51642C9.48886 3.01078 9.38334 3.54053 9.38443 4.07514C9.38443 6.96866 12.1123 15.3116 12.1123 16.8403L12.2002 20.1766C12.2002 20.1766 8.73507 12.6727 7.0317 11.0412C6.64942 10.6629 6.19566 10.3628 5.69585 10.1578C5.19622 9.95292 4.66057 9.84724 4.11947 9.84707C3.57836 9.84671 3.04253 9.95165 2.54272 10.156C2.04274 10.3603 1.58856 10.66 1.20598 11.0379C0.82339 11.4157 0.519943 11.8644 0.313011 12.358C0.106094 12.8518 -0.00027605 13.3809 5.38013e-07 13.9153C0.000277126 14.4497 0.107171 14.9787 0.314598 15.4724C0.522039 15.9658 0.825879 16.4142 1.20885 16.7915C3.28143 18.8378 6.43144 18.0913 11.2243 21.7511C12.049 22.4332 12.8112 23.1858 13.5024 24C14.1931 23.1858 14.955 22.4332 15.7794 21.7511C20.5722 18.0913 23.7223 18.8378 25.795 16.7915C26.5666 16.0287 27 14.9946 27 13.9164C27 12.8382 26.5666 11.804 25.795 11.0412Z" fill="#D5A38E"/>
</svg>
