<svg width="20" height="16" viewBox="0 0 20 16" fill="#385384" xmlns="http://www.w3.org/2000/svg">
<path d="M3.41253 7.45786C2.68553 7.16005 2.06694 6.64668 1.63974 5.98668C1.21255 5.32668 0.997187 4.55163 1.02263 3.76555C0.992671 3.26407 1.06926 2.76193 1.24733 2.29226C1.42541 1.82258 1.70093 1.39606 2.05571 1.04083C2.4105 0.685593 2.8365 0.409722 3.30558 0.231421C3.77466 0.0531203 4.27614 -0.0235639 4.77699 0.00643748C7.16687 0.00643748 9.00933 1.71486 9.00933 5.06494C9.00933 9.23307 5.93858 13.3344 0.886482 16L0 14.6338C3.34306 12.3076 4.50469 10.4629 4.50469 9.09673C4.51893 8.74305 4.4209 8.39396 4.22469 8.09952C4.02848 7.80509 3.74416 7.58046 3.41253 7.45786ZM14.4004 7.45786C13.6738 7.15983 13.0557 6.64632 12.629 5.9863C12.2022 5.32628 11.9874 4.55136 12.0134 3.76555C11.9832 3.26402 12.0596 2.76177 12.2376 2.29199C12.4156 1.82221 12.6911 1.39558 13.0459 1.04029C13.4007 0.685009 13.8268 0.409149 14.296 0.230931C14.7652 0.0527134 15.2668 -0.0237982 15.7677 0.00643748C18.1548 0.00643748 20 1.71486 20 5.06494C20 9.23307 16.9265 13.3344 11.8772 16L10.9879 14.6338C14.3338 12.3076 15.4926 10.4629 15.4926 9.09673C15.5074 8.74293 15.4096 8.39358 15.2133 8.09903C15.017 7.80448 14.7324 7.57996 14.4004 7.45786Z" fill="#385384"/>
</svg>
