<svg width="212" height="16" viewBox="0 0 212 16" fill="none" xmlns="http://www.w3.org/2000/svg">
<path d="M0.836 11V3.454H3.916C4.70067 3.454 5.368 3.58967 5.918 3.861C6.468 4.13233 6.88967 4.54667 7.183 5.104C7.48367 5.654 7.634 6.36167 7.634 7.227C7.634 8.085 7.48367 8.79267 7.183 9.35C6.88967 9.90733 6.468 10.3217 5.918 10.593C5.368 10.8643 4.70067 11 3.916 11H0.836ZM2.475 9.647H3.905C4.235 9.647 4.52833 9.59933 4.785 9.504C5.04167 9.40867 5.25433 9.26933 5.423 9.086C5.59167 8.89533 5.72 8.66067 5.808 8.382C5.896 8.096 5.94 7.766 5.94 7.392V7.062C5.94 6.688 5.896 6.36167 5.808 6.083C5.72 5.797 5.59167 5.56233 5.423 5.379C5.25433 5.18833 5.04167 5.04533 4.785 4.95C4.52833 4.84733 4.235 4.796 3.905 4.796H2.475V9.647ZM9.96784 11V3.454H15.9958V4.796H11.6178V6.479H15.4898V7.81H11.6178V9.647H16.0618V11H9.96784ZM20.5006 11L17.7726 3.454H19.5436L21.1716 8.272C21.201 8.35267 21.234 8.45167 21.2706 8.569C21.3073 8.679 21.344 8.789 21.3806 8.899C21.4173 9.009 21.4466 9.108 21.4686 9.196H21.5346C21.564 9.11533 21.5933 9.02367 21.6226 8.921C21.6593 8.811 21.6923 8.701 21.7216 8.591C21.7583 8.481 21.7913 8.37833 21.8206 8.283L23.4486 3.454H25.1536L22.4146 11H20.5006ZM27.1143 11V3.454H33.1423V4.796H28.7643V6.479H32.6363V7.81H28.7643V9.647H33.2083V11H27.1143ZM35.6231 11V3.454H37.2621V9.603H41.0681V11H35.6231ZM46.3091 11.132C45.5098 11.132 44.8205 10.989 44.2411 10.703C43.6618 10.417 43.2181 9.98433 42.9101 9.405C42.6021 8.82567 42.4481 8.09967 42.4481 7.227C42.4481 6.33967 42.6021 5.61 42.9101 5.038C43.2181 4.45867 43.6618 4.02967 44.2411 3.751C44.8205 3.465 45.5098 3.322 46.3091 3.322C47.1231 3.322 47.8161 3.465 48.3881 3.751C48.9675 4.02967 49.4111 4.45867 49.7191 5.038C50.0271 5.61 50.1811 6.33967 50.1811 7.227C50.1811 8.09967 50.0271 8.82567 49.7191 9.405C49.4111 9.98433 48.9675 10.417 48.3881 10.703C47.8161 10.989 47.1231 11.132 46.3091 11.132ZM46.3091 9.79C46.6685 9.79 46.9838 9.73867 47.2551 9.636C47.5265 9.53333 47.7538 9.37933 47.9371 9.174C48.1205 8.96867 48.2598 8.71933 48.3551 8.426C48.4505 8.12533 48.4981 7.78433 48.4981 7.403V7.062C48.4981 6.67333 48.4505 6.32867 48.3551 6.028C48.2598 5.72733 48.1205 5.478 47.9371 5.28C47.7538 5.07467 47.5265 4.92067 47.2551 4.818C46.9838 4.71533 46.6685 4.664 46.3091 4.664C45.9571 4.664 45.6455 4.71533 45.3741 4.818C45.1028 4.92067 44.8755 5.07467 44.6921 5.28C44.5088 5.478 44.3695 5.72733 44.2741 6.028C44.1861 6.32867 44.1421 6.67333 44.1421 7.062V7.403C44.1421 7.78433 44.1861 8.12533 44.2741 8.426C44.3695 8.71933 44.5088 8.96867 44.6921 9.174C44.8755 9.37933 45.1028 9.53333 45.3741 9.636C45.6455 9.73867 45.9571 9.79 46.3091 9.79ZM52.5118 11V3.454H56.4388C56.9814 3.454 57.4324 3.55667 57.7918 3.762C58.1584 3.96 58.4334 4.24233 58.6168 4.609C58.8074 4.96833 58.9028 5.39733 58.9028 5.896C58.9028 6.39467 58.8038 6.831 58.6058 7.205C58.4151 7.57167 58.1328 7.85767 57.7588 8.063C57.3848 8.26833 56.9264 8.371 56.3838 8.371H54.1508V11H52.5118ZM54.1508 7.029H56.1638C56.5084 7.029 56.7724 6.93 56.9558 6.732C57.1464 6.534 57.2418 6.259 57.2418 5.907C57.2418 5.665 57.2014 5.46333 57.1208 5.302C57.0401 5.14067 56.9191 5.016 56.7578 4.928C56.6038 4.84 56.4058 4.796 56.1638 4.796H54.1508V7.029ZM60.9991 11V3.454H67.0271V4.796H62.6491V6.479H66.5211V7.81H62.6491V9.647H67.0931V11H60.9991ZM69.5079 11V3.454H72.5879C73.3725 3.454 74.0399 3.58967 74.5899 3.861C75.1399 4.13233 75.5615 4.54667 75.8549 5.104C76.1555 5.654 76.3059 6.36167 76.3059 7.227C76.3059 8.085 76.1555 8.79267 75.8549 9.35C75.5615 9.90733 75.1399 10.3217 74.5899 10.593C74.0399 10.8643 73.3725 11 72.5879 11H69.5079ZM71.1469 9.647H72.5769C72.9069 9.647 73.2002 9.59933 73.4569 9.504C73.7135 9.40867 73.9262 9.26933 74.0949 9.086C74.2635 8.89533 74.3919 8.66067 74.4799 8.382C74.5679 8.096 74.6119 7.766 74.6119 7.392V7.062C74.6119 6.688 74.5679 6.36167 74.4799 6.083C74.3919 5.797 74.2635 5.56233 74.0949 5.379C73.9262 5.18833 73.7135 5.04533 73.4569 4.95C73.2002 4.84733 72.9069 4.796 72.5769 4.796H71.1469V9.647ZM81.7989 11V3.454H86.1109C86.5069 3.454 86.8626 3.531 87.1779 3.685C87.5006 3.839 87.7536 4.05533 87.9369 4.334C88.1202 4.61267 88.2119 4.939 88.2119 5.313C88.2119 5.61367 88.1569 5.88133 88.0469 6.116C87.9369 6.35067 87.7866 6.545 87.5959 6.699C87.4126 6.853 87.2036 6.96667 86.9689 7.04V7.084C87.2476 7.14267 87.4932 7.25267 87.7059 7.414C87.9259 7.57533 88.0982 7.78433 88.2229 8.041C88.3549 8.29033 88.4209 8.58733 88.4209 8.932C88.4209 9.38667 88.3146 9.768 88.1019 10.076C87.8966 10.384 87.6216 10.615 87.2769 10.769C86.9322 10.923 86.5472 11 86.1219 11H81.7989ZM83.4379 9.658H85.8029C86.0742 9.658 86.2942 9.581 86.4629 9.427C86.6389 9.273 86.7269 9.03467 86.7269 8.712C86.7269 8.52133 86.6902 8.35633 86.6169 8.217C86.5436 8.07767 86.4336 7.97133 86.2869 7.898C86.1402 7.81733 85.9532 7.777 85.7259 7.777H83.4379V9.658ZM83.4379 6.501H85.6159C85.8139 6.501 85.9789 6.46433 86.1109 6.391C86.2502 6.31033 86.3529 6.20767 86.4189 6.083C86.4922 5.951 86.5289 5.80067 86.5289 5.632C86.5289 5.346 86.4482 5.12967 86.2869 4.983C86.1329 4.83633 85.9276 4.763 85.6709 4.763H83.4379V6.501ZM92.7545 11V7.964L89.8285 3.454H91.7315L93.6015 6.49H93.6565L95.5155 3.454H97.3085L94.4045 7.964V11H92.7545ZM103.892 11L101.164 3.454H102.935L104.563 8.272C104.593 8.35267 104.626 8.45167 104.662 8.569C104.699 8.679 104.736 8.789 104.772 8.899C104.809 9.009 104.838 9.108 104.86 9.196H104.926C104.956 9.11533 104.985 9.02367 105.014 8.921C105.051 8.811 105.084 8.701 105.113 8.591C105.15 8.481 105.183 8.37833 105.212 8.283L106.84 3.454H108.545L105.806 11H103.892ZM110.506 11V3.454H112.145V11H110.506ZM117.752 11.132C117.312 11.132 116.894 11.088 116.498 11C116.102 10.912 115.75 10.7727 115.442 10.582C115.141 10.384 114.903 10.1383 114.727 9.845C114.558 9.54433 114.474 9.18133 114.474 8.756C114.474 8.71933 114.474 8.68267 114.474 8.646C114.474 8.602 114.477 8.569 114.485 8.547H116.113C116.105 8.569 116.102 8.59833 116.102 8.635C116.102 8.67167 116.102 8.70467 116.102 8.734C116.102 8.96867 116.164 9.16667 116.289 9.328C116.421 9.48933 116.611 9.61033 116.861 9.691C117.11 9.77167 117.4 9.812 117.73 9.812C117.942 9.812 118.129 9.801 118.291 9.779C118.459 9.74967 118.606 9.713 118.731 9.669C118.863 9.61767 118.969 9.559 119.05 9.493C119.138 9.427 119.2 9.35 119.237 9.262C119.281 9.174 119.303 9.075 119.303 8.965C119.303 8.767 119.237 8.60567 119.105 8.481C118.98 8.35633 118.804 8.25 118.577 8.162C118.357 8.074 118.107 7.99333 117.829 7.92C117.55 7.84667 117.264 7.77333 116.971 7.7C116.677 7.61933 116.391 7.524 116.113 7.414C115.834 7.29667 115.585 7.15733 115.365 6.996C115.145 6.83467 114.969 6.62933 114.837 6.38C114.705 6.13067 114.639 5.83 114.639 5.478C114.639 5.104 114.716 4.78133 114.87 4.51C115.031 4.23867 115.255 4.015 115.541 3.839C115.827 3.663 116.157 3.53467 116.531 3.454C116.905 3.366 117.312 3.322 117.752 3.322C118.162 3.322 118.551 3.366 118.918 3.454C119.284 3.53467 119.607 3.66667 119.886 3.85C120.164 4.03333 120.381 4.26433 120.535 4.543C120.696 4.82167 120.777 5.15167 120.777 5.533V5.665H119.182V5.577C119.182 5.379 119.123 5.21033 119.006 5.071C118.888 4.93167 118.723 4.82167 118.511 4.741C118.298 4.66033 118.049 4.62 117.763 4.62C117.455 4.62 117.191 4.64933 116.971 4.708C116.758 4.76667 116.593 4.85467 116.476 4.972C116.366 5.082 116.311 5.214 116.311 5.368C116.311 5.544 116.373 5.69067 116.498 5.808C116.63 5.918 116.806 6.017 117.026 6.105C117.253 6.18567 117.506 6.259 117.785 6.325C118.063 6.391 118.349 6.46433 118.643 6.545C118.936 6.62567 119.222 6.721 119.501 6.831C119.779 6.941 120.029 7.08033 120.249 7.249C120.469 7.41033 120.645 7.612 120.777 7.854C120.909 8.096 120.975 8.38567 120.975 8.723C120.975 9.30233 120.835 9.768 120.557 10.12C120.278 10.472 119.897 10.7287 119.413 10.89C118.929 11.0513 118.375 11.132 117.752 11.132ZM126.547 11.132C125.858 11.132 125.264 11.022 124.765 10.802C124.274 10.582 123.896 10.252 123.632 9.812C123.368 9.36467 123.236 8.811 123.236 8.151V3.454H124.886V8.107C124.886 8.64967 125.029 9.06767 125.315 9.361C125.601 9.647 126.012 9.79 126.547 9.79C127.083 9.79 127.493 9.647 127.779 9.361C128.073 9.06767 128.219 8.64967 128.219 8.107V3.454H129.869V8.151C129.869 8.811 129.737 9.36467 129.473 9.812C129.209 10.252 128.828 10.582 128.329 10.802C127.838 11.022 127.244 11.132 126.547 11.132ZM131.578 11L134.482 3.454H136.506L139.41 11H137.639L137.1 9.515H133.811L133.272 11H131.578ZM134.284 8.195H136.627L135.956 6.336C135.926 6.25533 135.89 6.16 135.846 6.05C135.809 5.93267 135.769 5.80433 135.725 5.665C135.681 5.52567 135.637 5.39 135.593 5.258C135.556 5.11867 135.519 4.994 135.483 4.884H135.417C135.38 5.02333 135.332 5.18833 135.274 5.379C135.215 5.56233 135.156 5.742 135.098 5.918C135.039 6.08667 134.991 6.226 134.955 6.336L134.284 8.195ZM141.308 11V3.454H142.947V9.603H146.753V11H141.308ZM148.807 11V3.454H150.446V11H148.807ZM156.635 11.132C155.836 11.132 155.147 10.989 154.567 10.703C153.988 10.417 153.544 9.98433 153.236 9.405C152.928 8.82567 152.774 8.09967 152.774 7.227C152.774 6.33967 152.928 5.61 153.236 5.038C153.544 4.45867 153.988 4.02967 154.567 3.751C155.147 3.465 155.836 3.322 156.635 3.322C157.449 3.322 158.142 3.465 158.714 3.751C159.294 4.02967 159.737 4.45867 160.045 5.038C160.353 5.61 160.507 6.33967 160.507 7.227C160.507 8.09967 160.353 8.82567 160.045 9.405C159.737 9.98433 159.294 10.417 158.714 10.703C158.142 10.989 157.449 11.132 156.635 11.132ZM156.635 9.79C156.995 9.79 157.31 9.73867 157.581 9.636C157.853 9.53333 158.08 9.37933 158.263 9.174C158.447 8.96867 158.586 8.71933 158.681 8.426C158.777 8.12533 158.824 7.78433 158.824 7.403V7.062C158.824 6.67333 158.777 6.32867 158.681 6.028C158.586 5.72733 158.447 5.478 158.263 5.28C158.08 5.07467 157.853 4.92067 157.581 4.818C157.31 4.71533 156.995 4.664 156.635 4.664C156.283 4.664 155.972 4.71533 155.7 4.818C155.429 4.92067 155.202 5.07467 155.018 5.28C154.835 5.478 154.696 5.72733 154.6 6.028C154.512 6.32867 154.468 6.67333 154.468 7.062V7.403C154.468 7.78433 154.512 8.12533 154.6 8.426C154.696 8.71933 154.835 8.96867 155.018 9.174C155.202 9.37933 155.429 9.53333 155.7 9.636C155.972 9.73867 156.283 9.79 156.635 9.79Z" fill="white"/>

</svg>
