<svg width="33" height="32" viewBox="0 0 33 32" fill="none" xmlns="http://www.w3.org/2000/svg">
<path d="M16.3929 0C8.83189 0 0 5.02636 0 15.9688C0 26.9113 8.69775 32 16.3929 32C24.0179 32 32.7156 26.9113 32.7156 15.9688C32.7156 5.02636 23.8839 0 16.3929 0ZM16.3949 28.9383C10.8636 28.9383 6.18484 24.7749 6.18484 16C6.18484 6.90427 11.1477 3.06172 16.3949 3.06172C21.5678 3.06172 26.5307 6.8401 26.5307 15.9359C26.5308 24.7749 21.852 28.9383 16.3949 28.9383Z" fill="#D5A38E"/>
<path d="M23.1141 15.4641C22.6882 15.0426 22.1132 14.8063 21.514 14.8063C20.9148 14.8063 20.3398 15.0426 19.9139 15.4641C18.9776 16.372 17.0731 20.5477 17.0731 20.5477L17.1214 18.6912C17.1214 17.8404 18.6207 13.1978 18.6207 11.5876C18.6213 11.29 18.5632 10.9953 18.4498 10.7201C18.3364 10.445 18.1698 10.195 17.9596 9.98434C17.7494 9.77369 17.4997 9.60657 17.2248 9.49254C16.9499 9.37852 16.6553 9.31982 16.3577 9.31982C16.0601 9.31982 15.7654 9.37852 15.4905 9.49254C15.2157 9.60657 14.966 9.77369 14.7558 9.98434C14.5456 10.195 14.379 10.445 14.2655 10.7201C14.1521 10.9953 14.094 11.29 14.0947 11.5876C14.0947 13.1978 15.594 17.8404 15.594 18.6912L15.6423 20.5477C15.6423 20.5477 13.7378 16.372 12.8015 15.4641C12.5915 15.2536 12.342 15.0865 12.0674 14.9725C11.7928 14.8585 11.4983 14.7997 11.201 14.7995C10.9036 14.7994 10.6091 14.8578 10.3343 14.9715C10.0596 15.0852 9.80994 15.252 9.59967 15.4622C9.38939 15.6725 9.22261 15.9221 9.10888 16.1969C8.99514 16.4716 8.93668 16.7661 8.93683 17.0635C8.93698 17.3609 8.99573 17.6553 9.10974 17.9299C9.22375 18.2046 9.39075 18.454 9.60124 18.6641C10.7404 19.8027 12.4717 19.3874 15.1059 21.424C15.5591 21.8036 15.9781 22.2224 16.3579 22.6755C16.7375 22.2223 17.1563 21.8036 17.6095 21.424C20.2437 19.3874 21.975 19.8027 23.1141 18.6641C23.5382 18.2396 23.7765 17.6641 23.7765 17.0641C23.7765 16.464 23.5382 15.8886 23.1141 15.4641Z" fill="#D5A38E"/>
</svg>
