<svg width="58" height="56" viewBox="0 0 58 56" fill="none" xmlns="http://www.w3.org/2000/svg">
<path d="M28.6876 0C15.4558 0 0 8.79613 0 27.9455C0 47.0948 15.2211 56 28.6876 56C42.0313 56 57.2524 47.0948 57.2524 27.9455C57.2524 8.79613 41.7968 0 28.6876 0ZM28.6911 50.642C19.0113 50.642 10.8235 43.356 10.8235 28.0001C10.8235 12.0825 19.5085 5.35801 28.6911 5.35801C37.7437 5.35801 46.4288 11.9702 46.4288 27.8878C46.4289 43.3561 38.241 50.642 28.6911 50.642Z" fill="#D5A38E"/>
<path d="M40.449 27.0625C39.7036 26.325 38.6973 25.9113 37.6487 25.9113C36.6001 25.9113 35.5939 26.325 34.8485 27.0625C33.21 28.6514 29.8771 35.9589 29.8771 35.9589L29.9616 32.7099C29.9616 31.2211 32.5854 23.0965 32.5854 20.2787C32.5865 19.7579 32.4849 19.2421 32.2864 18.7606C32.0878 18.2792 31.7963 17.8416 31.4285 17.473C31.0606 17.1043 30.6237 16.8119 30.1426 16.6123C29.6616 16.4128 29.146 16.3101 28.6252 16.3101C28.1044 16.3101 27.5887 16.4128 27.1077 16.6123C26.6266 16.8119 26.1897 17.1043 25.8219 17.473C25.454 17.8416 25.1625 18.2792 24.9639 18.7606C24.7654 19.2421 24.6638 19.7579 24.6649 20.2787C24.6649 23.0965 27.2887 31.2211 27.2887 32.7099L27.3732 35.9589C27.3732 35.9589 24.0403 28.6514 22.4019 27.0625C22.0343 26.6941 21.5978 26.4018 21.1172 26.2022C20.6366 26.0027 20.1213 25.8998 19.6009 25.8995C19.0805 25.8992 18.5652 26.0015 18.0843 26.2005C17.6035 26.3995 17.1666 26.6913 16.7986 27.0593C16.4307 27.4272 16.1388 27.8641 15.9398 28.3449C15.7407 28.8257 15.6384 29.3411 15.6387 29.8615C15.6389 30.3819 15.7418 30.8971 15.9413 31.3777C16.1408 31.8584 16.433 32.2949 16.8014 32.6625C18.7949 34.6551 21.8247 33.9284 26.4346 37.4923C27.2277 38.1567 27.9609 38.8895 28.6256 39.6824C29.2899 38.8895 30.0228 38.1566 30.8158 37.4923C35.4256 33.9284 38.4554 34.6552 40.449 32.6625C41.1911 31.9197 41.608 30.9126 41.608 29.8625C41.608 28.8124 41.1911 27.8053 40.449 27.0625Z" fill="#D5A38E"/>
</svg>
